<svg width="208" height="208" viewBox="0 0 208 208" fill="none" xmlns="http://www.w3.org/2000/svg">
<path fill-rule="evenodd" clip-rule="evenodd" d="M103.999 18.6666V-6.48499e-05C75.3609 -6.48499e-05 49.4337 11.8463 30.666 30.6666L43.6596 43.6602C59.1019 28.2179 80.4352 18.6666 103.999 18.6666Z" fill="#CFD8DC"/>
<path fill-rule="evenodd" clip-rule="evenodd" d="M18.6666 104H-6.48499e-05C-6.48499e-05 75.3614 11.8463 49.4341 30.6666 30.6665L43.6602 43.6601C28.2179 59.1024 18.6666 80.4357 18.6666 104Z" fill="#CFD8DC"/>
<path fill-rule="evenodd" clip-rule="evenodd" d="M18.6666 104H-6.48499e-05C-6.48499e-05 132.639 11.8463 158.566 30.6666 177.333L43.6602 164.34C28.2179 148.898 18.6666 127.564 18.6666 104Z" fill="#CFD8DC"/>
<path fill-rule="evenodd" clip-rule="evenodd" d="M103.999 189.333V208C75.3609 208 49.4337 196.154 30.666 177.333L43.6596 164.34C59.1019 179.782 80.4352 189.333 103.999 189.333Z" fill="#CFD8DC"/>
<path fill-rule="evenodd" clip-rule="evenodd" d="M104.001 189.333V208C132.639 208 158.566 196.154 177.334 177.333L164.34 164.34C148.898 179.782 127.565 189.333 104.001 189.333Z" fill="#CFD8DC"/>
<path fill-rule="evenodd" clip-rule="evenodd" d="M189.333 104H208C208 132.639 196.154 158.566 177.333 177.333L164.34 164.34C179.782 148.898 189.333 127.564 189.333 104Z" fill="#44B5AE"/>
<path fill-rule="evenodd" clip-rule="evenodd" d="M189.333 104H208C208 75.3614 196.154 49.4341 177.333 30.6665L164.34 43.6601C179.782 59.1024 189.333 80.4357 189.333 104Z" fill="#44B5AE"/>
<path fill-rule="evenodd" clip-rule="evenodd" d="M104.001 18.6666V-6.48499e-05C132.639 -6.48499e-05 158.566 11.8463 177.334 30.6666L164.34 43.6602C148.898 28.2179 127.565 18.6666 104.001 18.6666Z" fill="#44B5AE"/>
<path d="M60.3892 140.182V118.364H61.7869V140.182H60.3892ZM63.7557 125.778C63.6989 125.153 63.446 124.668 62.9972 124.321C62.554 123.969 61.9205 123.793 61.0966 123.793C60.5511 123.793 60.0966 123.864 59.733 124.006C59.3693 124.148 59.0966 124.344 58.9148 124.594C58.733 124.838 58.6392 125.119 58.6335 125.438C58.6222 125.699 58.6733 125.929 58.7869 126.128C58.9063 126.327 59.0767 126.503 59.2983 126.656C59.5256 126.804 59.7983 126.935 60.1165 127.048C60.4347 127.162 60.7926 127.261 61.1903 127.347L62.6903 127.688C63.554 127.875 64.3153 128.125 64.9744 128.438C65.6392 128.75 66.196 129.122 66.6449 129.554C67.0994 129.986 67.4432 130.483 67.6761 131.045C67.9091 131.608 68.0284 132.239 68.0341 132.938C68.0284 134.04 67.75 134.986 67.1989 135.776C66.6477 136.565 65.8551 137.17 64.821 137.591C63.7926 138.011 62.5511 138.222 61.0966 138.222C59.6364 138.222 58.3636 138.003 57.2784 137.565C56.1932 137.128 55.3494 136.463 54.7472 135.571C54.1449 134.679 53.8352 133.551 53.8182 132.188H57.858C57.892 132.75 58.0426 133.219 58.3097 133.594C58.5767 133.969 58.9432 134.253 59.4091 134.446C59.8807 134.639 60.4261 134.736 61.0455 134.736C61.6136 134.736 62.0966 134.659 62.4943 134.506C62.8977 134.352 63.2074 134.139 63.4233 133.866C63.6392 133.594 63.75 133.281 63.7557 132.929C63.75 132.599 63.6477 132.318 63.4489 132.085C63.25 131.847 62.9432 131.642 62.5284 131.472C62.1193 131.295 61.5966 131.134 60.9602 130.986L59.1364 130.56C57.625 130.213 56.4347 129.653 55.5653 128.881C54.696 128.102 54.2642 127.051 54.2699 125.727C54.2642 124.648 54.554 123.702 55.1392 122.889C55.7244 122.077 56.5341 121.443 57.5682 120.989C58.6023 120.534 59.7813 120.307 61.1051 120.307C62.4574 120.307 63.6307 120.537 64.625 120.997C65.625 121.452 66.4006 122.091 66.9517 122.915C67.5028 123.739 67.7841 124.693 67.7955 125.778H63.7557ZM78.2017 120.545V138H73.9915V124.483H73.8892L69.9858 126.869V123.222L74.2898 120.545H78.2017ZM88.7422 138.239C87.4695 138.239 86.3388 138.009 85.3501 137.548C84.3615 137.088 83.5803 136.455 83.0064 135.648C82.4382 134.841 82.1428 133.915 82.12 132.869H86.2109C86.245 133.511 86.5064 134.028 86.995 134.42C87.4837 134.807 88.0661 135 88.7422 135C89.2706 135 89.7393 134.884 90.1484 134.651C90.5575 134.418 90.8786 134.091 91.1115 133.67C91.3445 133.244 91.4581 132.756 91.4524 132.205C91.4581 131.642 91.3416 131.151 91.103 130.73C90.87 130.31 90.5462 129.983 90.1314 129.75C89.7223 129.511 89.2507 129.392 88.7166 129.392C88.2109 129.386 87.7308 129.497 87.2763 129.724C86.8274 129.952 86.4865 130.261 86.2536 130.653L82.5291 129.955L83.2876 120.545H94.4865V123.946H86.7564L86.3558 128.062H86.4581C86.7479 127.58 87.2138 127.182 87.8558 126.869C88.5036 126.551 89.2393 126.392 90.0632 126.392C91.1087 126.392 92.0405 126.636 92.8587 127.125C93.6825 127.608 94.3303 128.278 94.8018 129.136C95.2791 129.994 95.5178 130.977 95.5178 132.085C95.5178 133.284 95.2337 134.347 94.6655 135.273C94.103 136.199 93.3132 136.926 92.2962 137.455C91.2848 137.977 90.1001 138.239 88.7422 138.239ZM101.605 135.614L101.528 136.56C101.46 137.344 101.321 138.108 101.111 138.852C100.906 139.602 100.688 140.276 100.455 140.872C100.222 141.469 100.037 141.932 99.9006 142.261H97.2756C97.3665 141.932 97.4886 141.469 97.642 140.872C97.8011 140.276 97.9489 139.602 98.0852 138.852C98.2216 138.102 98.2983 137.341 98.3153 136.568L98.3324 135.614H101.605ZM111.24 138.426C109.717 138.426 108.405 138.065 107.303 137.344C106.2 136.616 105.351 135.574 104.754 134.216C104.158 132.852 103.862 131.213 103.868 129.298C103.874 127.384 104.172 125.759 104.763 124.423C105.359 123.082 106.206 122.062 107.303 121.364C108.405 120.659 109.717 120.307 111.24 120.307C112.763 120.307 114.075 120.659 115.178 121.364C116.286 122.062 117.138 123.082 117.734 124.423C118.331 125.764 118.626 127.389 118.621 129.298C118.621 131.219 118.322 132.861 117.726 134.224C117.129 135.588 116.28 136.631 115.178 137.352C114.081 138.068 112.768 138.426 111.24 138.426ZM111.24 134.974C112.149 134.974 112.885 134.511 113.447 133.585C114.01 132.653 114.288 131.224 114.283 129.298C114.283 128.037 114.155 126.997 113.899 126.179C113.643 125.355 113.288 124.741 112.834 124.338C112.379 123.935 111.848 123.733 111.24 123.733C110.337 123.733 109.607 124.19 109.05 125.105C108.493 126.014 108.212 127.412 108.206 129.298C108.2 130.577 108.322 131.636 108.572 132.477C108.828 133.318 109.186 133.946 109.646 134.361C110.107 134.77 110.638 134.974 111.24 134.974ZM128.256 138.426C126.733 138.426 125.42 138.065 124.318 137.344C123.216 136.616 122.366 135.574 121.77 134.216C121.173 132.852 120.878 131.213 120.884 129.298C120.889 127.384 121.188 125.759 121.778 124.423C122.375 123.082 123.222 122.062 124.318 121.364C125.42 120.659 126.733 120.307 128.256 120.307C129.778 120.307 131.091 120.659 132.193 121.364C133.301 122.062 134.153 123.082 134.75 124.423C135.347 125.764 135.642 127.389 135.636 129.298C135.636 131.219 135.338 132.861 134.741 134.224C134.145 135.588 133.295 136.631 132.193 137.352C131.097 138.068 129.784 138.426 128.256 138.426ZM128.256 134.974C129.165 134.974 129.901 134.511 130.463 133.585C131.026 132.653 131.304 131.224 131.298 129.298C131.298 128.037 131.17 126.997 130.915 126.179C130.659 125.355 130.304 124.741 129.849 124.338C129.395 123.935 128.864 123.733 128.256 123.733C127.352 123.733 126.622 124.19 126.065 125.105C125.509 126.014 125.227 127.412 125.222 129.298C125.216 130.577 125.338 131.636 125.588 132.477C125.844 133.318 126.202 133.946 126.662 134.361C127.122 134.77 127.653 134.974 128.256 134.974ZM145.271 138.426C143.749 138.426 142.436 138.065 141.334 137.344C140.232 136.616 139.382 135.574 138.786 134.216C138.189 132.852 137.893 131.213 137.899 129.298C137.905 127.384 138.203 125.759 138.794 124.423C139.391 123.082 140.237 122.062 141.334 121.364C142.436 120.659 143.749 120.307 145.271 120.307C146.794 120.307 148.107 120.659 149.209 121.364C150.317 122.062 151.169 123.082 151.766 124.423C152.362 125.764 152.658 127.389 152.652 129.298C152.652 131.219 152.354 132.861 151.757 134.224C151.161 135.588 150.311 136.631 149.209 137.352C148.112 138.068 146.8 138.426 145.271 138.426ZM145.271 134.974C146.18 134.974 146.916 134.511 147.479 133.585C148.041 132.653 148.32 131.224 148.314 129.298C148.314 128.037 148.186 126.997 147.93 126.179C147.675 125.355 147.32 124.741 146.865 124.338C146.411 123.935 145.879 123.733 145.271 123.733C144.368 123.733 143.638 124.19 143.081 125.105C142.524 126.014 142.243 127.412 142.237 129.298C142.232 130.577 142.354 131.636 142.604 132.477C142.859 133.318 143.217 133.946 143.678 134.361C144.138 134.77 144.669 134.974 145.271 134.974Z" fill="black"/>
<path d="M69.3892 90.1818V68.3636H70.7869V90.1818H69.3892ZM72.7557 75.7784C72.6989 75.1534 72.446 74.6676 71.9972 74.321C71.554 73.9688 70.9205 73.7926 70.0966 73.7926C69.5511 73.7926 69.0966 73.8636 68.733 74.0057C68.3693 74.1477 68.0966 74.3438 67.9148 74.5938C67.733 74.8381 67.6392 75.1193 67.6335 75.4375C67.6222 75.6989 67.6733 75.929 67.7869 76.1278C67.9063 76.3267 68.0767 76.5028 68.2983 76.6562C68.5256 76.804 68.7983 76.9347 69.1165 77.0483C69.4347 77.1619 69.7926 77.2614 70.1903 77.3466L71.6903 77.6875C72.554 77.875 73.3153 78.125 73.9744 78.4375C74.6392 78.75 75.196 79.1222 75.6449 79.554C76.0994 79.9858 76.4432 80.483 76.6761 81.0455C76.9091 81.608 77.0284 82.2386 77.0341 82.9375C77.0284 84.0398 76.75 84.9858 76.1989 85.7756C75.6477 86.5653 74.8551 87.1705 73.821 87.5909C72.7926 88.0114 71.5511 88.2216 70.0966 88.2216C68.6364 88.2216 67.3636 88.0028 66.2784 87.5653C65.1932 87.1278 64.3494 86.4631 63.7472 85.571C63.1449 84.679 62.8352 83.5511 62.8182 82.1875H66.858C66.892 82.75 67.0426 83.2188 67.3097 83.5938C67.5767 83.9688 67.9432 84.2528 68.4091 84.446C68.8807 84.6392 69.4261 84.7358 70.0455 84.7358C70.6136 84.7358 71.0966 84.6591 71.4943 84.5057C71.8977 84.3523 72.2074 84.1392 72.4233 83.8665C72.6392 83.5937 72.75 83.2812 72.7557 82.929C72.75 82.5994 72.6477 82.3182 72.4489 82.0852C72.25 81.8466 71.9432 81.642 71.5284 81.4716C71.1193 81.2955 70.5966 81.1335 69.9602 80.9858L68.1364 80.5597C66.625 80.2131 65.4347 79.6534 64.5653 78.8807C63.696 78.1023 63.2642 77.0511 63.2699 75.7273C63.2642 74.6477 63.554 73.7017 64.1392 72.8892C64.7244 72.0767 65.5341 71.4432 66.5682 70.9886C67.6023 70.5341 68.7813 70.3068 70.1051 70.3068C71.4574 70.3068 72.6307 70.5369 73.625 70.9972C74.625 71.4517 75.4006 72.0909 75.9517 72.9148C76.5028 73.7386 76.7841 74.6932 76.7955 75.7784H72.7557ZM79.8722 88L86.9119 74.0568V73.946H78.679V70.5455H91.2756V73.9716L84.2102 88H79.8722ZM94.8786 85.6136L94.8018 86.5597C94.7337 87.3437 94.5945 88.108 94.3842 88.8523C94.1797 89.6023 93.9609 90.2756 93.728 90.8722C93.495 91.4688 93.3104 91.9318 93.174 92.2614H90.549C90.6399 91.9318 90.7621 91.4688 90.9155 90.8722C91.0746 90.2756 91.2223 89.6023 91.3587 88.8523C91.495 88.1023 91.5717 87.3409 91.5888 86.5682L91.6058 85.6136H94.8786ZM104.513 88.4261C102.991 88.4261 101.678 88.0653 100.576 87.3438C99.4737 86.6165 98.6243 85.5739 98.0277 84.2159C97.4311 82.8523 97.1357 81.2131 97.1413 79.2983C97.147 77.3835 97.4453 75.7585 98.0362 74.4233C98.6328 73.0824 99.4794 72.0625 100.576 71.3636C101.678 70.6591 102.991 70.3068 104.513 70.3068C106.036 70.3068 107.349 70.6591 108.451 71.3636C109.559 72.0625 110.411 73.0824 111.008 74.4233C111.604 75.7642 111.9 77.3892 111.894 79.2983C111.894 81.2187 111.596 82.8608 110.999 84.2244C110.403 85.5881 109.553 86.6307 108.451 87.3523C107.354 88.0682 106.042 88.4261 104.513 88.4261ZM104.513 84.9744C105.423 84.9744 106.158 84.5114 106.721 83.5852C107.283 82.6534 107.562 81.2244 107.556 79.2983C107.556 78.0369 107.428 76.9972 107.173 76.179C106.917 75.3551 106.562 74.7415 106.107 74.3381C105.653 73.9347 105.121 73.733 104.513 73.733C103.61 73.733 102.88 74.1903 102.323 75.1051C101.766 76.0142 101.485 77.4119 101.479 79.2983C101.474 80.5767 101.596 81.6364 101.846 82.4773C102.102 83.3182 102.46 83.946 102.92 84.3608C103.38 84.7699 103.911 84.9744 104.513 84.9744ZM121.529 88.4261C120.006 88.4261 118.694 88.0653 117.592 87.3438C116.489 86.6165 115.64 85.5739 115.043 84.2159C114.447 82.8523 114.151 81.2131 114.157 79.2983C114.163 77.3835 114.461 75.7585 115.052 74.4233C115.648 73.0824 116.495 72.0625 117.592 71.3636C118.694 70.6591 120.006 70.3068 121.529 70.3068C123.052 70.3068 124.364 70.6591 125.467 71.3636C126.575 72.0625 127.427 73.0824 128.023 74.4233C128.62 75.7642 128.915 77.3892 128.91 79.2983C128.91 81.2187 128.612 82.8608 128.015 84.2244C127.418 85.5881 126.569 86.6307 125.467 87.3523C124.37 88.0682 123.058 88.4261 121.529 88.4261ZM121.529 84.9744C122.438 84.9744 123.174 84.5114 123.737 83.5852C124.299 82.6534 124.577 81.2244 124.572 79.2983C124.572 78.0369 124.444 76.9972 124.188 76.179C123.933 75.3551 123.577 74.7415 123.123 74.3381C122.668 73.9347 122.137 73.733 121.529 73.733C120.626 73.733 119.896 74.1903 119.339 75.1051C118.782 76.0142 118.501 77.4119 118.495 79.2983C118.489 80.5767 118.612 81.6364 118.862 82.4773C119.117 83.3182 119.475 83.946 119.935 84.3608C120.396 84.7699 120.927 84.9744 121.529 84.9744ZM138.545 88.4261C137.022 88.4261 135.71 88.0653 134.607 87.3438C133.505 86.6165 132.656 85.5739 132.059 84.2159C131.462 82.8523 131.167 81.2131 131.173 79.2983C131.178 77.3835 131.477 75.7585 132.067 74.4233C132.664 73.0824 133.511 72.0625 134.607 71.3636C135.71 70.6591 137.022 70.3068 138.545 70.3068C140.067 70.3068 141.38 70.6591 142.482 71.3636C143.59 72.0625 144.442 73.0824 145.039 74.4233C145.636 75.7642 145.931 77.3892 145.925 79.2983C145.925 81.2187 145.627 82.8608 145.031 84.2244C144.434 85.5881 143.585 86.6307 142.482 87.3523C141.386 88.0682 140.073 88.4261 138.545 88.4261ZM138.545 84.9744C139.454 84.9744 140.19 84.5114 140.752 83.5852C141.315 82.6534 141.593 81.2244 141.587 79.2983C141.587 78.0369 141.46 76.9972 141.204 76.179C140.948 75.3551 140.593 74.7415 140.138 74.3381C139.684 73.9347 139.153 73.733 138.545 73.733C137.641 73.733 136.911 74.1903 136.354 75.1051C135.798 76.0142 135.516 77.4119 135.511 79.2983C135.505 80.5767 135.627 81.6364 135.877 82.4773C136.133 83.3182 136.491 83.946 136.951 84.3608C137.411 84.7699 137.942 84.9744 138.545 84.9744Z" fill="black"/>
<line x1="57" y1="103.5" x2="153" y2="103.5" stroke="black" stroke-opacity="0.7"/>
</svg>
