<svg width="349" height="306" viewBox="0 0 349 306" fill="none" xmlns="http://www.w3.org/2000/svg">
<g opacity="0.7">
<path d="M40.5357 34.6126C41.1405 34.6126 41.6801 34.7382 42.1546 34.9894C42.6384 35.2406 43.0152 35.6127 43.285 36.1058C43.5641 36.5989 43.7037 37.1944 43.7037 37.8922V42.4277H42.1267V38.1294C42.1267 37.4409 41.9546 36.9153 41.6103 36.5524C41.2661 36.1803 40.7963 35.9942 40.2008 35.9942C39.6054 35.9942 39.1309 36.1803 38.7773 36.5524C38.4331 36.9153 38.261 37.4409 38.261 38.1294V42.4277H36.684V38.1294C36.684 37.4409 36.5119 36.9153 36.1676 36.5524C35.8234 36.1803 35.3536 35.9942 34.7581 35.9942C34.1627 35.9942 33.6882 36.1803 33.3346 36.5524C32.9904 36.9153 32.8183 37.4409 32.8183 38.1294V42.4277H31.2273V34.7382H32.8183V35.6174C33.0788 35.3011 33.4091 35.0545 33.8091 34.8777C34.2092 34.701 34.6372 34.6126 35.093 34.6126C35.7071 34.6126 36.256 34.7428 36.7398 35.0033C37.2236 35.2638 37.5958 35.6406 37.8563 36.1337C38.0889 35.6686 38.4517 35.3011 38.9448 35.0312C39.4379 34.7521 39.9682 34.6126 40.5357 34.6126Z" fill="#333333"/>
<path d="M83.1899 36.0361V40.2925C83.1899 40.5809 83.255 40.7903 83.3853 40.9205C83.5248 41.0415 83.7574 41.1019 84.083 41.1019H85.0599V42.4277H83.8039C83.0875 42.4277 82.5386 42.2603 82.1572 41.9253C81.7757 41.5904 81.585 41.0461 81.585 40.2925V36.0361H80.6779V34.7382H81.585V32.8263H83.1899V34.7382H85.0599V36.0361H83.1899Z" fill="#333333"/>
<path d="M134.267 34.7382L131.881 42.4277H130.206L128.657 36.7478L127.108 42.4277H125.433L123.033 34.7382H124.652L126.257 40.9205L127.89 34.7382H129.55L131.113 40.8926L132.704 34.7382H134.267Z" fill="#333333"/>
<path d="M174.403 36.0361V40.2925C174.403 40.5809 174.468 40.7903 174.598 40.9205C174.738 41.0415 174.97 41.1019 175.296 41.1019H176.273V42.4277H175.017C174.3 42.4277 173.752 42.2603 173.37 41.9253C172.989 41.5904 172.798 41.0461 172.798 40.2925V36.0361H171.891V34.7382H172.798V32.8263H174.403V34.7382H176.273V36.0361H174.403Z" fill="#333333"/>
<path d="M221.878 36.0361H220.454V42.4277H218.849V36.0361H217.942V34.7382H218.849V34.1939C218.849 33.3101 219.082 32.6681 219.547 32.268C220.022 31.8587 220.761 31.654 221.766 31.654V32.9798C221.282 32.9798 220.943 33.0728 220.747 33.2589C220.552 33.4357 220.454 33.7473 220.454 34.1939V34.7382H221.878V36.0361Z" fill="#333333"/>
<path d="M265.552 42.5533C264.947 42.5533 264.403 42.4463 263.919 42.2324C263.444 42.0091 263.068 41.7113 262.788 41.3392C262.509 40.9577 262.36 40.5344 262.342 40.0692H263.989C264.017 40.3949 264.17 40.6693 264.449 40.8926C264.738 41.1066 265.096 41.2136 265.524 41.2136C265.97 41.2136 266.315 41.1299 266.556 40.9624C266.808 40.7856 266.933 40.5623 266.933 40.2925C266.933 40.0041 266.794 39.7901 266.515 39.6506C266.245 39.511 265.812 39.3575 265.217 39.19C264.64 39.0319 264.17 38.8784 263.807 38.7295C263.444 38.5806 263.128 38.3527 262.858 38.0457C262.598 37.7386 262.467 37.3339 262.467 36.8315C262.467 36.4222 262.588 36.05 262.83 35.7151C263.072 35.3708 263.416 35.101 263.863 34.9056C264.319 34.7103 264.84 34.6126 265.426 34.6126C266.301 34.6126 267.003 34.8359 267.533 35.2824C268.073 35.7197 268.361 36.3198 268.399 37.0827H266.808C266.78 36.7385 266.64 36.464 266.389 36.2593C266.138 36.0547 265.798 35.9523 265.37 35.9523C264.952 35.9523 264.631 36.0314 264.407 36.1896C264.184 36.3477 264.072 36.5571 264.072 36.8176C264.072 37.0223 264.147 37.1944 264.296 37.3339C264.445 37.4735 264.626 37.5851 264.84 37.6689C265.054 37.7433 265.37 37.841 265.789 37.9619C266.347 38.1108 266.803 38.2643 267.157 38.4225C267.519 38.5713 267.831 38.7946 268.092 39.0923C268.352 39.3901 268.487 39.7855 268.496 40.2786C268.496 40.7158 268.375 41.1066 268.133 41.4508C267.892 41.7951 267.547 42.0649 267.101 42.2603C266.663 42.4556 266.147 42.5533 265.552 42.5533Z" fill="#333333"/>
<path d="M311.158 42.5533C310.553 42.5533 310.009 42.4463 309.525 42.2324C309.051 42.0091 308.674 41.7113 308.395 41.3392C308.116 40.9577 307.967 40.5344 307.948 40.0692H309.595C309.623 40.3949 309.777 40.6693 310.056 40.8926C310.344 41.1066 310.702 41.2136 311.13 41.2136C311.577 41.2136 311.921 41.1299 312.163 40.9624C312.414 40.7856 312.54 40.5623 312.54 40.2925C312.54 40.0041 312.4 39.7901 312.121 39.6506C311.851 39.511 311.419 39.3575 310.823 39.19C310.246 39.0319 309.777 38.8784 309.414 38.7295C309.051 38.5806 308.734 38.3527 308.465 38.0457C308.204 37.7386 308.074 37.3339 308.074 36.8315C308.074 36.4222 308.195 36.05 308.437 35.7151C308.679 35.3708 309.023 35.101 309.469 34.9056C309.925 34.7103 310.446 34.6126 311.033 34.6126C311.907 34.6126 312.609 34.8359 313.14 35.2824C313.679 35.7197 313.968 36.3198 314.005 37.0827H312.414C312.386 36.7385 312.247 36.464 311.995 36.2593C311.744 36.0547 311.405 35.9523 310.977 35.9523C310.558 35.9523 310.237 36.0314 310.014 36.1896C309.79 36.3477 309.679 36.5571 309.679 36.8176C309.679 37.0223 309.753 37.1944 309.902 37.3339C310.051 37.4735 310.232 37.5851 310.446 37.6689C310.66 37.7433 310.977 37.841 311.395 37.9619C311.954 38.1108 312.409 38.2643 312.763 38.4225C313.126 38.5713 313.438 38.7946 313.698 39.0923C313.959 39.3901 314.093 39.7855 314.103 40.2786C314.103 40.7158 313.982 41.1066 313.74 41.4508C313.498 41.7951 313.154 42.0649 312.707 42.2603C312.27 42.4556 311.754 42.5533 311.158 42.5533Z" fill="#333333"/>
</g>
<path d="M27.353 83.3294C27.353 81.7199 27.6228 80.4639 28.1624 79.5614C28.7113 78.6496 29.651 78.1937 30.9814 78.1937C32.3119 78.1937 33.2469 78.6496 33.7865 79.5614C34.3354 80.4639 34.6099 81.7199 34.6099 83.3294C34.6099 84.9576 34.3354 86.2322 33.7865 87.1533C33.2469 88.065 32.3119 88.5209 30.9814 88.5209C29.651 88.5209 28.7113 88.065 28.1624 87.1533C27.6228 86.2322 27.353 84.9576 27.353 83.3294ZM33.0469 83.3294C33.0469 82.5758 32.9957 81.9385 32.8934 81.4175C32.8003 80.8965 32.6049 80.4732 32.3072 80.1475C32.0095 79.8126 31.5676 79.6451 30.9814 79.6451C30.3953 79.6451 29.9534 79.8126 29.6556 80.1475C29.3579 80.4732 29.1579 80.8965 29.0556 81.4175C28.9625 81.9385 28.916 82.5758 28.916 83.3294C28.916 84.1109 28.9625 84.7669 29.0556 85.2972C29.1486 85.8275 29.344 86.2555 29.6417 86.5811C29.9487 86.9067 30.3953 87.0695 30.9814 87.0695C31.5676 87.0695 32.0095 86.9067 32.3072 86.5811C32.6142 86.2555 32.8143 85.8275 32.9073 85.2972C33.0003 84.7669 33.0469 84.1109 33.0469 83.3294ZM36.084 79.8266V78.3752H38.9867V88.5488H37.3818V79.8266H36.084Z" fill="#333333"/>
<rect x="66.0752" y="66.5703" width="30.7024" height="34.9556" rx="15.3512" fill="#1E1E56"/>
<path d="M73.7641 83.3294C73.7641 81.7199 74.0339 80.4639 74.5735 79.5614C75.1224 78.6496 76.0621 78.1937 77.3926 78.1937C78.723 78.1937 79.658 78.6496 80.1976 79.5614C80.7466 80.4639 81.021 81.7199 81.021 83.3294C81.021 84.9576 80.7466 86.2322 80.1976 87.1533C79.658 88.065 78.723 88.5209 77.3926 88.5209C76.0621 88.5209 75.1224 88.065 74.5735 87.1533C74.0339 86.2322 73.7641 84.9576 73.7641 83.3294ZM79.458 83.3294C79.458 82.5758 79.4068 81.9385 79.3045 81.4175C79.2114 80.8965 79.0161 80.4732 78.7183 80.1475C78.4206 79.8126 77.9787 79.6451 77.3926 79.6451C76.8064 79.6451 76.3645 79.8126 76.0668 80.1475C75.7691 80.4732 75.569 80.8965 75.4667 81.4175C75.3736 81.9385 75.3271 82.5758 75.3271 83.3294C75.3271 84.1109 75.3736 84.7669 75.4667 85.2972C75.5597 85.8275 75.7551 86.2555 76.0528 86.5811C76.3598 86.9067 76.8064 87.0695 77.3926 87.0695C77.9787 87.0695 78.4206 86.9067 78.7183 86.5811C79.0254 86.2555 79.2254 85.8275 79.3184 85.2972C79.4115 84.7669 79.458 84.1109 79.458 83.3294ZM83.5836 86.3857C84.4768 85.6135 85.1792 84.9808 85.6909 84.4877C86.2119 83.9853 86.6446 83.4643 86.9888 82.9247C87.333 82.3851 87.5052 81.8455 87.5052 81.3059C87.5052 80.7476 87.3703 80.3103 87.1005 79.994C86.8399 79.6777 86.4259 79.5195 85.8584 79.5195C85.3095 79.5195 84.8815 79.6963 84.5745 80.0498C84.2768 80.3941 84.1186 80.8593 84.1 81.4454H82.5649C82.5928 80.3848 82.9091 79.5754 83.5139 79.0171C84.1279 78.4496 84.9048 78.1658 85.8444 78.1658C86.8586 78.1658 87.6494 78.4449 88.2169 79.0032C88.7937 79.5614 89.0822 80.3057 89.0822 81.2361C89.0822 81.9059 88.91 82.5526 88.5658 83.1759C88.2309 83.79 87.8261 84.3435 87.3517 84.8366C86.8865 85.3204 86.291 85.8833 85.5653 86.5253L84.9373 87.0835H89.3613V88.4093H82.5788V87.251L83.5836 86.3857Z" fill="white"/>
<path d="M120.427 83.3294C120.427 81.7199 120.697 80.4639 121.237 79.5614C121.786 78.6496 122.725 78.1937 124.056 78.1937C125.386 78.1937 126.321 78.6496 126.861 79.5614C127.41 80.4639 127.684 81.7199 127.684 83.3294C127.684 84.9576 127.41 86.2322 126.861 87.1533C126.321 88.065 125.386 88.5209 124.056 88.5209C122.725 88.5209 121.786 88.065 121.237 87.1533C120.697 86.2322 120.427 84.9576 120.427 83.3294ZM126.121 83.3294C126.121 82.5758 126.07 81.9385 125.968 81.4175C125.875 80.8965 125.679 80.4732 125.381 80.1475C125.084 79.8126 124.642 79.6451 124.056 79.6451C123.47 79.6451 123.028 79.8126 122.73 80.1475C122.432 80.4732 122.232 80.8965 122.13 81.4175C122.037 81.9385 121.99 82.5758 121.99 83.3294C121.99 84.1109 122.037 84.7669 122.13 85.2972C122.223 85.8275 122.418 86.2555 122.716 86.5811C123.023 86.9067 123.47 87.0695 124.056 87.0695C124.642 87.0695 125.084 86.9067 125.381 86.5811C125.688 86.2555 125.888 85.8275 125.982 85.2972C126.075 84.7669 126.121 84.1109 126.121 83.3294ZM129.34 80.8872C129.395 80.0219 129.726 79.3474 130.33 78.8636C130.944 78.3798 131.726 78.1379 132.675 78.1379C133.326 78.1379 133.889 78.2542 134.364 78.4868C134.838 78.7194 135.196 79.0357 135.438 79.4358C135.68 79.8359 135.801 80.2871 135.801 80.7895C135.801 81.3663 135.648 81.8594 135.341 82.2688C135.034 82.6782 134.666 82.9526 134.238 83.0922V83.148C134.787 83.3155 135.215 83.6225 135.522 84.0691C135.829 84.5063 135.982 85.0692 135.982 85.7577C135.982 86.3066 135.857 86.7951 135.606 87.223C135.354 87.651 134.982 87.9906 134.489 88.2418C133.996 88.4837 133.405 88.6047 132.717 88.6047C131.712 88.6047 130.884 88.3488 130.233 87.8371C129.591 87.3161 129.247 86.5718 129.2 85.6042H130.735C130.772 86.0973 130.963 86.502 131.307 86.8183C131.652 87.1254 132.117 87.2789 132.703 87.2789C133.27 87.2789 133.708 87.1254 134.015 86.8183C134.322 86.502 134.475 86.0973 134.475 85.6042C134.475 84.9529 134.266 84.4924 133.847 84.2226C133.438 83.9435 132.805 83.8039 131.949 83.8039H131.586V82.4921H131.963C132.717 82.4828 133.289 82.3572 133.68 82.1153C134.08 81.8734 134.28 81.4919 134.28 80.9709C134.28 80.5243 134.136 80.1708 133.847 79.9103C133.559 79.6405 133.149 79.5056 132.619 79.5056C132.098 79.5056 131.693 79.6405 131.405 79.9103C131.117 80.1708 130.944 80.4964 130.889 80.8872H129.34Z" fill="#333333"/>
<path d="M166.964 83.3294C166.964 81.7199 167.234 80.4639 167.774 79.5614C168.323 78.6496 169.262 78.1937 170.593 78.1937C171.923 78.1937 172.858 78.6496 173.398 79.5614C173.947 80.4639 174.221 81.7199 174.221 83.3294C174.221 84.9576 173.947 86.2322 173.398 87.1533C172.858 88.065 171.923 88.5209 170.593 88.5209C169.262 88.5209 168.323 88.065 167.774 87.1533C167.234 86.2322 166.964 84.9576 166.964 83.3294ZM172.658 83.3294C172.658 82.5758 172.607 81.9385 172.505 81.4175C172.412 80.8965 172.216 80.4732 171.919 80.1475C171.621 79.8126 171.179 79.6451 170.593 79.6451C170.007 79.6451 169.565 79.8126 169.267 80.1475C168.969 80.4732 168.769 80.8965 168.667 81.4175C168.574 81.9385 168.527 82.5758 168.527 83.3294C168.527 84.1109 168.574 84.7669 168.667 85.2972C168.76 85.8275 168.955 86.2555 169.253 86.5811C169.56 86.9067 170.007 87.0695 170.593 87.0695C171.179 87.0695 171.621 86.9067 171.919 86.5811C172.226 86.2555 172.426 85.8275 172.519 85.2972C172.612 84.7669 172.658 84.1109 172.658 83.3294ZM175.709 86.4276V85.2274L180.398 78.5008H182.324V85.046H183.622V86.4276H182.324V88.5488H180.761V86.4276H175.709ZM180.831 80.1196L177.537 85.046H180.831V80.1196Z" fill="#333333"/>
<path d="M213.5 83.3294C213.5 81.7199 213.77 80.4639 214.31 79.5614C214.859 78.6496 215.798 78.1937 217.129 78.1937C218.459 78.1937 219.394 78.6496 219.934 79.5614C220.483 80.4639 220.757 81.7199 220.757 83.3294C220.757 84.9576 220.483 86.2322 219.934 87.1533C219.394 88.065 218.459 88.5209 217.129 88.5209C215.798 88.5209 214.859 88.065 214.31 87.1533C213.77 86.2322 213.5 84.9576 213.5 83.3294ZM219.194 83.3294C219.194 82.5758 219.143 81.9385 219.041 81.4175C218.948 80.8965 218.752 80.4732 218.455 80.1475C218.157 79.8126 217.715 79.6451 217.129 79.6451C216.543 79.6451 216.101 79.8126 215.803 80.1475C215.505 80.4732 215.305 80.8965 215.203 81.4175C215.11 81.9385 215.063 82.5758 215.063 83.3294C215.063 84.1109 215.11 84.7669 215.203 85.2972C215.296 85.8275 215.491 86.2555 215.789 86.5811C216.096 86.9067 216.543 87.0695 217.129 87.0695C217.715 87.0695 218.157 86.9067 218.455 86.5811C218.762 86.2555 218.962 85.8275 219.055 85.2972C219.148 84.7669 219.194 84.1109 219.194 83.3294ZM229 79.7428H224.325V82.52C224.52 82.2595 224.809 82.0408 225.19 81.8641C225.581 81.6873 225.995 81.5989 226.432 81.5989C227.214 81.5989 227.846 81.7664 228.33 82.1013C228.823 82.4363 229.172 82.8596 229.377 83.3713C229.591 83.883 229.698 84.4226 229.698 84.9901C229.698 85.6786 229.563 86.2927 229.293 86.8323C229.032 87.3626 228.637 87.7813 228.107 88.0883C227.586 88.3953 226.944 88.5488 226.181 88.5488C225.167 88.5488 224.353 88.2976 223.739 87.7952C223.125 87.2928 222.757 86.6276 222.636 85.7996H224.185C224.288 86.2368 224.515 86.5857 224.869 86.8462C225.223 87.0974 225.665 87.223 226.195 87.223C226.855 87.223 227.348 87.023 227.674 86.623C228.009 86.2229 228.177 85.6926 228.177 85.032C228.177 84.3621 228.009 83.8504 227.674 83.4969C227.339 83.134 226.846 82.9526 226.195 82.9526C225.739 82.9526 225.353 83.0689 225.037 83.3015C224.729 83.5248 224.506 83.8318 224.367 84.2226H222.859V78.3473H229V79.7428Z" fill="#333333"/>
<path d="M260.038 83.3294C260.038 81.7199 260.307 80.4639 260.847 79.5614C261.396 78.6496 262.336 78.1937 263.666 78.1937C264.996 78.1937 265.931 78.6496 266.471 79.5614C267.02 80.4639 267.294 81.7199 267.294 83.3294C267.294 84.9576 267.02 86.2322 266.471 87.1533C265.931 88.065 264.996 88.5209 263.666 88.5209C262.336 88.5209 261.396 88.065 260.847 87.1533C260.307 86.2322 260.038 84.9576 260.038 83.3294ZM265.731 83.3294C265.731 82.5758 265.68 81.9385 265.578 81.4175C265.485 80.8965 265.29 80.4732 264.992 80.1475C264.694 79.8126 264.252 79.6451 263.666 79.6451C263.08 79.6451 262.638 79.8126 262.34 80.1475C262.042 80.4732 261.842 80.8965 261.74 81.4175C261.647 81.9385 261.601 82.5758 261.601 83.3294C261.601 84.1109 261.647 84.7669 261.74 85.2972C261.833 85.8275 262.029 86.2555 262.326 86.5811C262.633 86.9067 263.08 87.0695 263.666 87.0695C264.252 87.0695 264.694 86.9067 264.992 86.5811C265.299 86.2555 265.499 85.8275 265.592 85.2972C265.685 84.7669 265.731 84.1109 265.731 83.3294ZM274.448 80.7337C274.346 80.3057 274.16 79.9847 273.89 79.7707C273.62 79.5567 273.244 79.4498 272.76 79.4498C272.025 79.4498 271.476 79.7335 271.113 80.301C270.75 80.8593 270.56 81.7896 270.541 83.0922C270.783 82.6828 271.136 82.3665 271.602 82.1432C272.067 81.9199 272.569 81.8083 273.109 81.8083C273.723 81.8083 274.262 81.9432 274.728 82.213C275.202 82.4735 275.57 82.8549 275.83 83.3573C276.1 83.8597 276.235 84.4598 276.235 85.1576C276.235 85.8089 276.105 86.3904 275.844 86.9021C275.593 87.4138 275.216 87.8185 274.714 88.1162C274.211 88.4046 273.606 88.5488 272.899 88.5488C271.941 88.5488 271.188 88.3395 270.639 87.9208C270.099 87.4929 269.718 86.8928 269.494 86.1205C269.28 85.3483 269.173 84.3854 269.173 83.2317C269.173 79.8266 270.373 78.124 272.774 78.124C273.704 78.124 274.435 78.3752 274.965 78.8776C275.504 79.38 275.821 79.9987 275.914 80.7337H274.448ZM272.76 83.148C272.192 83.148 271.709 83.3201 271.308 83.6644C270.918 83.9993 270.722 84.4877 270.722 85.1297C270.722 85.7717 270.904 86.2834 271.267 86.6648C271.639 87.037 272.155 87.223 272.816 87.223C273.402 87.223 273.862 87.0416 274.197 86.6788C274.542 86.3159 274.714 85.8321 274.714 85.2274C274.714 84.5947 274.546 84.0923 274.211 83.7202C273.886 83.3387 273.402 83.148 272.76 83.148Z" fill="#333333"/>
<path d="M306.575 83.3294C306.575 81.7199 306.844 80.4639 307.384 79.5614C307.933 78.6496 308.873 78.1937 310.203 78.1937C311.534 78.1937 312.469 78.6496 313.008 79.5614C313.557 80.4639 313.832 81.7199 313.832 83.3294C313.832 84.9576 313.557 86.2322 313.008 87.1533C312.469 88.065 311.534 88.5209 310.203 88.5209C308.873 88.5209 307.933 88.065 307.384 87.1533C306.844 86.2322 306.575 84.9576 306.575 83.3294ZM312.269 83.3294C312.269 82.5758 312.217 81.9385 312.115 81.4175C312.022 80.8965 311.827 80.4732 311.529 80.1475C311.231 79.8126 310.789 79.6451 310.203 79.6451C309.617 79.6451 309.175 79.8126 308.877 80.1475C308.58 80.4732 308.38 80.8965 308.277 81.4175C308.184 81.9385 308.138 82.5758 308.138 83.3294C308.138 84.1109 308.184 84.7669 308.277 85.2972C308.37 85.8275 308.566 86.2555 308.863 86.5811C309.17 86.9067 309.617 87.0695 310.203 87.0695C310.789 87.0695 311.231 86.9067 311.529 86.5811C311.836 86.2555 312.036 85.8275 312.129 85.2972C312.222 84.7669 312.269 84.1109 312.269 83.3294ZM321.962 79.6033L318.083 88.5488H316.478L320.399 79.7707H315.236V78.417H321.962V79.6033Z" fill="#333333"/>
<path d="M27.353 129.449C27.353 127.839 27.6228 126.583 28.1624 125.681C28.7113 124.769 29.651 124.313 30.9814 124.313C32.3119 124.313 33.2469 124.769 33.7865 125.681C34.3354 126.583 34.6099 127.839 34.6099 129.449C34.6099 131.077 34.3354 132.351 33.7865 133.272C33.2469 134.184 32.3119 134.64 30.9814 134.64C29.651 134.64 28.7113 134.184 28.1624 133.272C27.6228 132.351 27.353 131.077 27.353 129.449ZM33.0469 129.449C33.0469 128.695 32.9957 128.058 32.8934 127.537C32.8003 127.016 32.6049 126.592 32.3072 126.267C32.0095 125.932 31.5676 125.764 30.9814 125.764C30.3953 125.764 29.9534 125.932 29.6556 126.267C29.3579 126.592 29.1579 127.016 29.0556 127.537C28.9625 128.058 28.916 128.695 28.916 129.449C28.916 130.23 28.9625 130.886 29.0556 131.416C29.1486 131.947 29.344 132.375 29.6417 132.7C29.9487 133.026 30.3953 133.189 30.9814 133.189C31.5676 133.189 32.0095 133.026 32.3072 132.7C32.6142 132.375 32.8143 131.947 32.9073 131.416C33.0003 130.886 33.0469 130.23 33.0469 129.449ZM38.0098 129.351C37.0422 128.867 36.5584 128.104 36.5584 127.062C36.5584 126.56 36.6841 126.099 36.9353 125.681C37.1865 125.262 37.5633 124.932 38.0657 124.69C38.5681 124.438 39.1821 124.313 39.9078 124.313C40.6242 124.313 41.2336 124.438 41.736 124.69C42.2477 124.932 42.6292 125.262 42.8804 125.681C43.1316 126.099 43.2572 126.56 43.2572 127.062C43.2572 127.583 43.1223 128.044 42.8524 128.444C42.5919 128.835 42.243 129.137 41.8058 129.351C42.3361 129.546 42.7548 129.867 43.0618 130.314C43.3688 130.751 43.5223 131.267 43.5223 131.863C43.5223 132.468 43.3688 133.003 43.0618 133.468C42.7548 133.933 42.3268 134.291 41.7779 134.542C41.2289 134.794 40.6056 134.919 39.9078 134.919C39.21 134.919 38.5867 134.794 38.0377 134.542C37.4981 134.291 37.0748 133.933 36.7678 133.468C36.4608 133.003 36.3072 132.468 36.3072 131.863C36.3072 131.258 36.4608 130.737 36.7678 130.3C37.0748 129.863 37.4888 129.546 38.0098 129.351ZM41.736 127.258C41.736 126.737 41.5732 126.336 41.2475 126.057C40.9219 125.778 40.4753 125.639 39.9078 125.639C39.3496 125.639 38.9076 125.778 38.582 126.057C38.2564 126.336 38.0936 126.741 38.0936 127.271C38.0936 127.737 38.261 128.118 38.596 128.416C38.9402 128.704 39.3775 128.848 39.9078 128.848C40.4381 128.848 40.8754 128.7 41.2196 128.402C41.5639 128.104 41.736 127.723 41.736 127.258ZM39.9078 130.049C39.2938 130.049 38.7914 130.202 38.4006 130.509C38.0191 130.807 37.8284 131.24 37.8284 131.807C37.8284 132.337 38.0145 132.77 38.3866 133.105C38.7588 133.431 39.2658 133.593 39.9078 133.593C40.5405 133.593 41.0382 133.426 41.4011 133.091C41.7732 132.756 41.9593 132.328 41.9593 131.807C41.9593 131.249 41.7686 130.816 41.3871 130.509C41.015 130.202 40.5219 130.049 39.9078 130.049Z" fill="#333333"/>
<path d="M73.8901 129.449C73.8901 127.839 74.1599 126.583 74.6995 125.681C75.2484 124.769 76.1881 124.313 77.5185 124.313C78.849 124.313 79.784 124.769 80.3236 125.681C80.8725 126.583 81.147 127.839 81.147 129.449C81.147 131.077 80.8725 132.351 80.3236 133.272C79.784 134.184 78.849 134.64 77.5185 134.64C76.1881 134.64 75.2484 134.184 74.6995 133.272C74.1599 132.351 73.8901 131.077 73.8901 129.449ZM79.584 129.449C79.584 128.695 79.5328 128.058 79.4305 127.537C79.3374 127.016 79.142 126.592 78.8443 126.267C78.5466 125.932 78.1047 125.764 77.5185 125.764C76.9324 125.764 76.4905 125.932 76.1928 126.267C75.895 126.592 75.695 127.016 75.5927 127.537C75.4996 128.058 75.4531 128.695 75.4531 129.449C75.4531 130.23 75.4996 130.886 75.5927 131.416C75.6857 131.947 75.8811 132.375 76.1788 132.7C76.4858 133.026 76.9324 133.189 77.5185 133.189C78.1047 133.189 78.5466 133.026 78.8443 132.7C79.1513 132.375 79.3514 131.947 79.4444 131.416C79.5375 130.886 79.584 130.23 79.584 129.449ZM84.8121 131.905C84.9051 132.37 85.1052 132.723 85.4122 132.965C85.7192 133.207 86.1332 133.328 86.6542 133.328C87.3148 133.328 87.7986 133.068 88.1056 132.547C88.4127 132.026 88.5662 131.137 88.5662 129.881C88.3429 130.198 88.0266 130.444 87.6172 130.621C87.2171 130.788 86.7798 130.872 86.3054 130.872C85.7006 130.872 85.1517 130.751 84.6586 130.509C84.1655 130.258 83.7747 129.89 83.4863 129.407C83.2072 128.914 83.0676 128.318 83.0676 127.62C83.0676 126.597 83.3654 125.783 83.9608 125.178C84.5656 124.564 85.3936 124.257 86.4449 124.257C87.7102 124.257 88.608 124.68 89.1384 125.527C89.678 126.364 89.9478 127.653 89.9478 129.393C89.9478 130.593 89.8454 131.574 89.6408 132.337C89.4454 133.1 89.1011 133.677 88.608 134.068C88.1149 134.459 87.4311 134.654 86.5566 134.654C85.5611 134.654 84.7935 134.394 84.2539 133.872C83.7143 133.351 83.4119 132.696 83.3468 131.905H84.8121ZM86.5845 129.532C87.1427 129.532 87.58 129.36 87.8963 129.016C88.2219 128.662 88.3847 128.197 88.3847 127.62C88.3847 126.978 88.2126 126.481 87.8684 126.127C87.5335 125.764 87.0729 125.583 86.4868 125.583C85.9006 125.583 85.4355 125.769 85.0912 126.141C84.7563 126.504 84.5888 126.983 84.5888 127.579C84.5888 128.146 84.7516 128.616 85.0773 128.988C85.4122 129.351 85.9146 129.532 86.5845 129.532Z" fill="#333333"/>
<path d="M120.218 125.946V124.494H123.121V134.668H121.516V125.946H120.218ZM125.306 129.449C125.306 127.839 125.576 126.583 126.116 125.681C126.665 124.769 127.604 124.313 128.935 124.313C130.265 124.313 131.2 124.769 131.74 125.681C132.289 126.583 132.563 127.839 132.563 129.449C132.563 131.077 132.289 132.351 131.74 133.272C131.2 134.184 130.265 134.64 128.935 134.64C127.604 134.64 126.665 134.184 126.116 133.272C125.576 132.351 125.306 131.077 125.306 129.449ZM131 129.449C131 128.695 130.949 128.058 130.847 127.537C130.754 127.016 130.558 126.592 130.26 126.267C129.963 125.932 129.521 125.764 128.935 125.764C128.349 125.764 127.907 125.932 127.609 126.267C127.311 126.592 127.111 127.016 127.009 127.537C126.916 128.058 126.869 128.695 126.869 129.449C126.869 130.23 126.916 130.886 127.009 131.416C127.102 131.947 127.297 132.375 127.595 132.7C127.902 133.026 128.349 133.189 128.935 133.189C129.521 133.189 129.963 133.026 130.26 132.7C130.567 132.375 130.768 131.947 130.861 131.416C130.954 130.886 131 130.23 131 129.449Z" fill="#333333"/>
<path d="M166.755 125.946V124.494H169.658V134.668H168.053V125.946H166.755ZM171.634 125.946V124.494H174.537V134.668H172.932V125.946H171.634Z" fill="#333333"/>
<path d="M213.291 125.946V124.494H216.194V134.668H214.589V125.946H213.291ZM219.259 132.505C220.152 131.733 220.854 131.1 221.366 130.607C221.887 130.104 222.32 129.583 222.664 129.044C223.008 128.504 223.18 127.965 223.18 127.425C223.18 126.867 223.045 126.429 222.775 126.113C222.515 125.797 222.101 125.639 221.533 125.639C220.984 125.639 220.557 125.815 220.25 126.169C219.952 126.513 219.794 126.978 219.775 127.565H218.24C218.268 126.504 218.584 125.694 219.189 125.136C219.803 124.569 220.58 124.285 221.519 124.285C222.534 124.285 223.324 124.564 223.892 125.122C224.469 125.681 224.757 126.425 224.757 127.355C224.757 128.025 224.585 128.672 224.241 129.295C223.906 129.909 223.501 130.463 223.027 130.956C222.561 131.44 221.966 132.002 221.24 132.644L220.612 133.203H225.036V134.528H218.254V133.37L219.259 132.505Z" fill="#333333"/>
<path d="M259.828 125.946V124.494H262.731V134.668H261.126V125.946H259.828ZM264.889 127.006C264.944 126.141 265.275 125.467 265.879 124.983C266.494 124.499 267.275 124.257 268.224 124.257C268.875 124.257 269.438 124.373 269.913 124.606C270.387 124.839 270.745 125.155 270.987 125.555C271.229 125.955 271.35 126.406 271.35 126.909C271.35 127.485 271.197 127.979 270.89 128.388C270.583 128.797 270.215 129.072 269.787 129.211V129.267C270.336 129.435 270.764 129.742 271.071 130.188C271.378 130.625 271.532 131.188 271.532 131.877C271.532 132.426 271.406 132.914 271.155 133.342C270.904 133.77 270.531 134.11 270.038 134.361C269.545 134.603 268.954 134.724 268.266 134.724C267.261 134.724 266.433 134.468 265.782 133.956C265.14 133.435 264.796 132.691 264.749 131.723H266.284C266.321 132.216 266.512 132.621 266.856 132.937C267.201 133.244 267.666 133.398 268.252 133.398C268.819 133.398 269.257 133.244 269.564 132.937C269.871 132.621 270.024 132.216 270.024 131.723C270.024 131.072 269.815 130.612 269.396 130.342C268.987 130.063 268.354 129.923 267.498 129.923H267.136V128.611H267.512C268.266 128.602 268.838 128.476 269.229 128.234C269.629 127.993 269.829 127.611 269.829 127.09C269.829 126.643 269.685 126.29 269.396 126.029C269.108 125.76 268.699 125.625 268.168 125.625C267.647 125.625 267.242 125.76 266.954 126.029C266.666 126.29 266.494 126.616 266.438 127.006H264.889Z" fill="#333333"/>
<path d="M306.365 125.946V124.494H309.268V134.668H307.663V125.946H306.365ZM311.258 132.547V131.347L315.947 124.62H317.873V131.165H319.171V132.547H317.873V134.668H316.31V132.547H311.258ZM316.38 126.239L313.086 131.165H316.38V126.239Z" fill="#333333"/>
<path d="M27.1436 172.067V170.615H30.0464V180.789H28.4415V172.067H27.1436ZM38.7911 171.983H34.116V174.76C34.3114 174.5 34.5998 174.281 34.9812 174.104C35.372 173.928 35.786 173.839 36.2233 173.839C37.0048 173.839 37.6375 174.007 38.1213 174.342C38.6144 174.676 38.9633 175.1 39.1679 175.612C39.3819 176.123 39.4889 176.663 39.4889 177.23C39.4889 177.919 39.354 178.533 39.0842 179.073C38.8237 179.603 38.4283 180.022 37.898 180.329C37.377 180.636 36.735 180.789 35.9721 180.789C34.958 180.789 34.1439 180.538 33.5299 180.035C32.9158 179.533 32.5483 178.868 32.4274 178.04H33.9764C34.0788 178.477 34.3067 178.826 34.6603 179.086C35.0138 179.338 35.4557 179.463 35.9861 179.463C36.6466 179.463 37.1397 179.263 37.4653 178.863C37.8003 178.463 37.9678 177.933 37.9678 177.272C37.9678 176.602 37.8003 176.091 37.4653 175.737C37.1304 175.374 36.6373 175.193 35.9861 175.193C35.5302 175.193 35.1441 175.309 34.8277 175.542C34.5207 175.765 34.2974 176.072 34.1579 176.463H32.6507V170.587H38.7911V171.983Z" fill="#333333"/>
<path d="M73.6807 172.067V170.615H76.5835V180.789H74.9786V172.067H73.6807ZM84.2397 172.974C84.1374 172.546 83.9513 172.225 83.6815 172.011C83.4117 171.797 83.0349 171.69 82.5511 171.69C81.8161 171.69 81.2672 171.974 80.9043 172.541C80.5415 173.1 80.3507 174.03 80.3321 175.332C80.574 174.923 80.9276 174.607 81.3928 174.383C81.8579 174.16 82.3603 174.048 82.9 174.048C83.514 174.048 84.0536 174.183 84.5188 174.453C84.9933 174.714 85.3608 175.095 85.6213 175.598C85.8911 176.1 86.026 176.7 86.026 177.398C86.026 178.049 85.8958 178.631 85.6353 179.142C85.3841 179.654 85.0073 180.059 84.5049 180.356C84.0025 180.645 83.3977 180.789 82.6906 180.789C81.7323 180.789 80.9787 180.58 80.4298 180.161C79.8902 179.733 79.5087 179.133 79.2855 178.361C79.0715 177.589 78.9645 176.626 78.9645 175.472C78.9645 172.067 80.1647 170.364 82.565 170.364C83.4954 170.364 84.2257 170.615 84.7561 171.118C85.2957 171.62 85.612 172.239 85.705 172.974H84.2397ZM82.5511 175.388C81.9835 175.388 81.4997 175.56 81.0997 175.905C80.7089 176.24 80.5135 176.728 80.5135 177.37C80.5135 178.012 80.695 178.524 81.0578 178.905C81.43 179.277 81.9463 179.463 82.6069 179.463C83.193 179.463 83.6536 179.282 83.9885 178.919C84.3327 178.556 84.5049 178.072 84.5049 177.468C84.5049 176.835 84.3374 176.333 84.0025 175.96C83.6768 175.579 83.193 175.388 82.5511 175.388Z" fill="#333333"/>
<path d="M120.218 172.067V170.615H123.121V180.789H121.516V172.067H120.218ZM131.754 171.843L127.874 180.789H126.269L130.191 172.011H125.027V170.657H131.754V171.843Z" fill="#333333"/>
<path d="M166.755 172.067V170.615H169.658V180.789H168.053V172.067H166.755ZM173.56 175.472C172.592 174.988 172.108 174.225 172.108 173.183C172.108 172.681 172.234 172.22 172.485 171.802C172.736 171.383 173.113 171.053 173.616 170.811C174.118 170.56 174.732 170.434 175.458 170.434C176.174 170.434 176.784 170.56 177.286 170.811C177.798 171.053 178.179 171.383 178.43 171.802C178.682 172.22 178.807 172.681 178.807 173.183C178.807 173.704 178.672 174.165 178.402 174.565C178.142 174.956 177.793 175.258 177.356 175.472C177.886 175.667 178.305 175.988 178.612 176.435C178.919 176.872 179.072 177.389 179.072 177.984C179.072 178.589 178.919 179.124 178.612 179.589C178.305 180.054 177.877 180.412 177.328 180.663C176.779 180.915 176.156 181.04 175.458 181.04C174.76 181.04 174.137 180.915 173.588 180.663C173.048 180.412 172.625 180.054 172.318 179.589C172.011 179.124 171.857 178.589 171.857 177.984C171.857 177.379 172.011 176.858 172.318 176.421C172.625 175.984 173.039 175.667 173.56 175.472ZM177.286 173.379C177.286 172.858 177.123 172.458 176.798 172.178C176.472 171.899 176.025 171.76 175.458 171.76C174.9 171.76 174.458 171.899 174.132 172.178C173.806 172.458 173.644 172.862 173.644 173.393C173.644 173.858 173.811 174.239 174.146 174.537C174.49 174.825 174.928 174.97 175.458 174.97C175.988 174.97 176.425 174.821 176.77 174.523C177.114 174.225 177.286 173.844 177.286 173.379ZM175.458 176.17C174.844 176.17 174.341 176.323 173.951 176.63C173.569 176.928 173.378 177.361 173.378 177.928C173.378 178.458 173.565 178.891 173.937 179.226C174.309 179.552 174.816 179.714 175.458 179.714C176.09 179.714 176.588 179.547 176.951 179.212C177.323 178.877 177.509 178.449 177.509 177.928C177.509 177.37 177.319 176.937 176.937 176.63C176.565 176.323 176.072 176.17 175.458 176.17Z" fill="#333333"/>
<path d="M213.291 172.067V170.615H216.194V180.789H214.589V172.067H213.291ZM220.361 178.026C220.454 178.491 220.654 178.845 220.961 179.086C221.268 179.328 221.682 179.449 222.203 179.449C222.864 179.449 223.348 179.189 223.655 178.668C223.962 178.147 224.115 177.258 224.115 176.002C223.892 176.319 223.576 176.565 223.166 176.742C222.766 176.909 222.329 176.993 221.854 176.993C221.25 176.993 220.701 176.872 220.208 176.63C219.715 176.379 219.324 176.012 219.035 175.528C218.756 175.035 218.617 174.439 218.617 173.741C218.617 172.718 218.914 171.904 219.51 171.299C220.115 170.685 220.943 170.378 221.994 170.378C223.259 170.378 224.157 170.801 224.687 171.648C225.227 172.485 225.497 173.774 225.497 175.514C225.497 176.714 225.394 177.696 225.19 178.458C224.994 179.221 224.65 179.798 224.157 180.189C223.664 180.58 222.98 180.775 222.106 180.775C221.11 180.775 220.343 180.515 219.803 179.994C219.263 179.473 218.961 178.817 218.896 178.026H220.361ZM222.134 175.653C222.692 175.653 223.129 175.481 223.445 175.137C223.771 174.783 223.934 174.318 223.934 173.741C223.934 173.1 223.762 172.602 223.417 172.248C223.082 171.885 222.622 171.704 222.036 171.704C221.45 171.704 220.984 171.89 220.64 172.262C220.305 172.625 220.138 173.104 220.138 173.7C220.138 174.267 220.301 174.737 220.626 175.109C220.961 175.472 221.464 175.653 222.134 175.653Z" fill="#333333"/>
<path d="M260.917 178.626C261.81 177.854 262.512 177.221 263.024 176.728C263.545 176.226 263.978 175.705 264.322 175.165C264.666 174.625 264.838 174.086 264.838 173.546C264.838 172.988 264.703 172.551 264.434 172.234C264.173 171.918 263.759 171.76 263.192 171.76C262.643 171.76 262.215 171.937 261.908 172.29C261.61 172.634 261.452 173.1 261.433 173.686H259.898C259.926 172.625 260.242 171.816 260.847 171.257C261.461 170.69 262.238 170.406 263.178 170.406C264.192 170.406 264.982 170.685 265.55 171.243C266.127 171.802 266.415 172.546 266.415 173.476C266.415 174.146 266.243 174.793 265.899 175.416C265.564 176.03 265.159 176.584 264.685 177.077C264.22 177.561 263.624 178.124 262.898 178.765L262.27 179.324H266.694V180.65H259.912V179.491L260.917 178.626ZM268.092 175.57C268.092 173.96 268.362 172.704 268.901 171.802C269.45 170.89 270.39 170.434 271.72 170.434C273.051 170.434 273.986 170.89 274.526 171.802C275.074 172.704 275.349 173.96 275.349 175.57C275.349 177.198 275.074 178.472 274.526 179.393C273.986 180.305 273.051 180.761 271.72 180.761C270.39 180.761 269.45 180.305 268.901 179.393C268.362 178.472 268.092 177.198 268.092 175.57ZM273.786 175.57C273.786 174.816 273.735 174.179 273.632 173.658C273.539 173.137 273.344 172.713 273.046 172.388C272.749 172.053 272.307 171.885 271.72 171.885C271.134 171.885 270.692 172.053 270.395 172.388C270.097 172.713 269.897 173.137 269.795 173.658C269.702 174.179 269.655 174.816 269.655 175.57C269.655 176.351 269.702 177.007 269.795 177.537C269.888 178.068 270.083 178.496 270.381 178.821C270.688 179.147 271.134 179.31 271.72 179.31C272.307 179.31 272.749 179.147 273.046 178.821C273.353 178.496 273.553 178.068 273.646 177.537C273.739 177.007 273.786 176.351 273.786 175.57Z" fill="#333333"/>
<path d="M307.454 178.626C308.347 177.854 309.049 177.221 309.561 176.728C310.082 176.226 310.515 175.705 310.859 175.165C311.203 174.625 311.375 174.086 311.375 173.546C311.375 172.988 311.24 172.551 310.971 172.234C310.71 171.918 310.296 171.76 309.729 171.76C309.18 171.76 308.752 171.937 308.445 172.29C308.147 172.634 307.989 173.1 307.97 173.686H306.435C306.463 172.625 306.779 171.816 307.384 171.257C307.998 170.69 308.775 170.406 309.715 170.406C310.729 170.406 311.52 170.685 312.087 171.243C312.664 171.802 312.952 172.546 312.952 173.476C312.952 174.146 312.78 174.793 312.436 175.416C312.101 176.03 311.696 176.584 311.222 177.077C310.757 177.561 310.161 178.124 309.436 178.765L308.808 179.324H313.231V180.65H306.449V179.491L307.454 178.626ZM314.42 172.067V170.615H317.323V180.789H315.718V172.067H314.42Z" fill="#333333"/>
<path d="M28.2322 224.745C29.1253 223.973 29.8278 223.34 30.3395 222.847C30.8605 222.345 31.2931 221.824 31.6373 221.284C31.9816 220.744 32.1537 220.205 32.1537 219.665C32.1537 219.107 32.0188 218.67 31.749 218.353C31.4885 218.037 31.0745 217.879 30.5069 217.879C29.958 217.879 29.53 218.056 29.223 218.409C28.9253 218.753 28.7671 219.219 28.7485 219.805H27.2134C27.2413 218.744 27.5576 217.935 28.1624 217.377C28.7764 216.809 29.5533 216.525 30.493 216.525C31.5071 216.525 32.2979 216.804 32.8654 217.363C33.4423 217.921 33.7307 218.665 33.7307 219.595C33.7307 220.265 33.5586 220.912 33.2143 221.535C32.8794 222.149 32.4747 222.703 32.0002 223.196C31.535 223.68 30.9396 224.243 30.2139 224.885L29.5859 225.443H34.0098V226.769H27.2274V225.61L28.2322 224.745ZM36.2866 224.745C37.1798 223.973 37.8822 223.34 38.3939 222.847C38.915 222.345 39.3476 221.824 39.6918 221.284C40.0361 220.744 40.2082 220.205 40.2082 219.665C40.2082 219.107 40.0733 218.67 39.8035 218.353C39.543 218.037 39.1289 217.879 38.5614 217.879C38.0125 217.879 37.5845 218.056 37.2775 218.409C36.9798 218.753 36.8216 219.219 36.803 219.805H35.2679C35.2958 218.744 35.6121 217.935 36.2169 217.377C36.8309 216.809 37.6078 216.525 38.5475 216.525C39.5616 216.525 40.3524 216.804 40.9199 217.363C41.4967 217.921 41.7852 218.665 41.7852 219.595C41.7852 220.265 41.613 220.912 41.2688 221.535C40.9339 222.149 40.5292 222.703 40.0547 223.196C39.5895 223.68 38.994 224.243 38.2683 224.885L37.6403 225.443H42.0643V226.769H35.2818V225.61L36.2866 224.745Z" fill="#333333"/>
<path d="M74.7693 224.745C75.6624 223.973 76.3649 223.34 76.8766 222.847C77.3976 222.345 77.8302 221.824 78.1745 221.284C78.5187 220.744 78.6908 220.205 78.6908 219.665C78.6908 219.107 78.5559 218.67 78.2861 218.353C78.0256 218.037 77.6116 217.879 77.044 217.879C76.4951 217.879 76.0672 218.056 75.7601 218.409C75.4624 218.753 75.3042 219.219 75.2856 219.805H73.7505C73.7784 218.744 74.0948 217.935 74.6995 217.377C75.3135 216.809 76.0904 216.525 77.0301 216.525C78.0442 216.525 78.835 216.804 79.4025 217.363C79.9794 217.921 80.2678 218.665 80.2678 219.595C80.2678 220.265 80.0957 220.912 79.7514 221.535C79.4165 222.149 79.0118 222.703 78.5373 223.196C78.0721 223.68 77.4767 224.243 76.751 224.885L76.123 225.443H80.5469V226.769H73.7645V225.61L74.7693 224.745ZM81.9166 219.247C81.9725 218.381 82.3027 217.707 82.9075 217.223C83.5215 216.739 84.303 216.497 85.252 216.497C85.9033 216.497 86.4662 216.614 86.9407 216.846C87.4152 217.079 87.7734 217.395 88.0152 217.795C88.2571 218.195 88.3781 218.646 88.3781 219.149C88.3781 219.726 88.2246 220.219 87.9176 220.628C87.6105 221.038 87.243 221.312 86.8151 221.452V221.507C87.364 221.675 87.792 221.982 88.099 222.428C88.406 222.866 88.5595 223.429 88.5595 224.117C88.5595 224.666 88.4339 225.154 88.1827 225.582C87.9315 226.01 87.5594 226.35 87.0663 226.601C86.5732 226.843 85.9824 226.964 85.2939 226.964C84.2891 226.964 83.4611 226.708 82.8098 226.196C82.1678 225.675 81.8236 224.931 81.7771 223.964H83.3122C83.3494 224.457 83.5401 224.861 83.8844 225.178C84.2286 225.485 84.6938 225.638 85.2799 225.638C85.8475 225.638 86.2847 225.485 86.5918 225.178C86.8988 224.861 87.0523 224.457 87.0523 223.964C87.0523 223.312 86.843 222.852 86.4243 222.582C86.0149 222.303 85.3823 222.163 84.5263 222.163H84.1635V220.851H84.5403C85.2939 220.842 85.8661 220.717 86.2568 220.475C86.6569 220.233 86.8569 219.851 86.8569 219.33C86.8569 218.884 86.7127 218.53 86.4243 218.27C86.1359 218 85.7265 217.865 85.1962 217.865C84.6752 217.865 84.2705 218 83.9821 218.27C83.6937 218.53 83.5215 218.856 83.4657 219.247H81.9166Z" fill="#333333"/>
<path d="M121.306 224.745C122.2 223.973 122.902 223.34 123.414 222.847C123.935 222.345 124.367 221.824 124.712 221.284C125.056 220.744 125.228 220.205 125.228 219.665C125.228 219.107 125.093 218.67 124.823 218.353C124.563 218.037 124.149 217.879 123.581 217.879C123.032 217.879 122.604 218.056 122.297 218.409C122 218.753 121.841 219.219 121.823 219.805H120.288C120.316 218.744 120.632 217.935 121.237 217.377C121.851 216.809 122.628 216.525 123.567 216.525C124.581 216.525 125.372 216.804 125.94 217.363C126.516 217.921 126.805 218.665 126.805 219.595C126.805 220.265 126.633 220.912 126.289 221.535C125.954 222.149 125.549 222.703 125.074 223.196C124.609 223.68 124.014 224.243 123.288 224.885L122.66 225.443H127.084V226.769H120.302V225.61L121.306 224.745ZM128.286 224.787V223.587L132.975 216.86H134.901V223.405H136.199V224.787H134.901V226.908H133.338V224.787H128.286ZM133.408 218.479L130.114 223.405H133.408V218.479Z" fill="#333333"/>
<path d="M167.843 224.745C168.737 223.973 169.439 223.34 169.951 222.847C170.472 222.345 170.904 221.824 171.249 221.284C171.593 220.744 171.765 220.205 171.765 219.665C171.765 219.107 171.63 218.67 171.36 218.353C171.1 218.037 170.686 217.879 170.118 217.879C169.569 217.879 169.141 218.056 168.834 218.409C168.537 218.753 168.378 219.219 168.36 219.805H166.825C166.853 218.744 167.169 217.935 167.774 217.377C168.388 216.809 169.165 216.525 170.104 216.525C171.118 216.525 171.909 216.804 172.477 217.363C173.054 217.921 173.342 218.665 173.342 219.595C173.342 220.265 173.17 220.912 172.826 221.535C172.491 222.149 172.086 222.703 171.612 223.196C171.146 223.68 170.551 224.243 169.825 224.885L169.197 225.443H173.621V226.769H166.839V225.61L167.843 224.745ZM181.578 218.102H176.903V220.879C177.098 220.619 177.387 220.4 177.768 220.223C178.159 220.047 178.573 219.958 179.01 219.958C179.792 219.958 180.424 220.126 180.908 220.461C181.401 220.796 181.75 221.219 181.955 221.731C182.169 222.242 182.276 222.782 182.276 223.35C182.276 224.038 182.141 224.652 181.871 225.192C181.61 225.722 181.215 226.141 180.685 226.448C180.164 226.755 179.522 226.908 178.759 226.908C177.745 226.908 176.931 226.657 176.317 226.155C175.703 225.652 175.335 224.987 175.214 224.159H176.763C176.866 224.596 177.094 224.945 177.447 225.206C177.801 225.457 178.243 225.582 178.773 225.582C179.433 225.582 179.926 225.382 180.252 224.982C180.587 224.582 180.755 224.052 180.755 223.391C180.755 222.722 180.587 222.21 180.252 221.856C179.917 221.493 179.424 221.312 178.773 221.312C178.317 221.312 177.931 221.428 177.615 221.661C177.307 221.884 177.084 222.191 176.945 222.582H175.437V216.707H181.578V218.102Z" fill="#333333"/>
<path d="M214.38 224.745C215.273 223.973 215.975 223.34 216.487 222.847C217.008 222.345 217.441 221.824 217.785 221.284C218.129 220.744 218.301 220.205 218.301 219.665C218.301 219.107 218.166 218.67 217.896 218.353C217.636 218.037 217.222 217.879 216.654 217.879C216.105 217.879 215.678 218.056 215.37 218.409C215.073 218.753 214.915 219.219 214.896 219.805H213.361C213.389 218.744 213.705 217.935 214.31 217.377C214.924 216.809 215.701 216.525 216.64 216.525C217.655 216.525 218.445 216.804 219.013 217.363C219.59 217.921 219.878 218.665 219.878 219.595C219.878 220.265 219.706 220.912 219.362 221.535C219.027 222.149 218.622 222.703 218.148 223.196C217.682 223.68 217.087 224.243 216.361 224.885L215.733 225.443H220.157V226.769H213.375V225.61L214.38 224.745ZM227.026 219.093C226.923 218.665 226.737 218.344 226.467 218.13C226.197 217.916 225.821 217.809 225.337 217.809C224.602 217.809 224.053 218.093 223.69 218.66C223.327 219.219 223.137 220.149 223.118 221.452C223.36 221.042 223.713 220.726 224.179 220.503C224.644 220.279 225.146 220.168 225.686 220.168C226.3 220.168 226.839 220.303 227.305 220.572C227.779 220.833 228.147 221.214 228.407 221.717C228.677 222.219 228.812 222.819 228.812 223.517C228.812 224.168 228.682 224.75 228.421 225.261C228.17 225.773 227.793 226.178 227.291 226.476C226.788 226.764 226.184 226.908 225.476 226.908C224.518 226.908 223.765 226.699 223.216 226.28C222.676 225.852 222.295 225.252 222.071 224.48C221.857 223.708 221.75 222.745 221.75 221.591C221.75 218.186 222.95 216.483 225.351 216.483C226.281 216.483 227.012 216.735 227.542 217.237C228.081 217.739 228.398 218.358 228.491 219.093H227.026ZM225.337 221.507C224.769 221.507 224.286 221.679 223.885 222.024C223.495 222.359 223.299 222.847 223.299 223.489C223.299 224.131 223.481 224.643 223.844 225.024C224.216 225.396 224.732 225.582 225.393 225.582C225.979 225.582 226.439 225.401 226.774 225.038C227.119 224.675 227.291 224.192 227.291 223.587C227.291 222.954 227.123 222.452 226.788 222.08C226.463 221.698 225.979 221.507 225.337 221.507Z" fill="#333333"/>
<path d="M260.917 224.745C261.81 223.973 262.512 223.34 263.024 222.847C263.545 222.345 263.978 221.824 264.322 221.284C264.666 220.744 264.838 220.205 264.838 219.665C264.838 219.107 264.703 218.67 264.434 218.353C264.173 218.037 263.759 217.879 263.192 217.879C262.643 217.879 262.215 218.056 261.908 218.409C261.61 218.753 261.452 219.219 261.433 219.805H259.898C259.926 218.744 260.242 217.935 260.847 217.377C261.461 216.809 262.238 216.525 263.178 216.525C264.192 216.525 264.982 216.804 265.55 217.363C266.127 217.921 266.415 218.665 266.415 219.595C266.415 220.265 266.243 220.912 265.899 221.535C265.564 222.149 265.159 222.703 264.685 223.196C264.22 223.68 263.624 224.243 262.898 224.885L262.27 225.443H266.694V226.769H259.912V225.61L260.917 224.745ZM274.54 217.963L270.66 226.908H269.055L272.976 218.13H267.813V216.776H274.54V217.963Z" fill="#333333"/>
<path d="M307.454 224.745C308.347 223.973 309.049 223.34 309.561 222.847C310.082 222.345 310.515 221.824 310.859 221.284C311.203 220.744 311.375 220.205 311.375 219.665C311.375 219.107 311.24 218.67 310.971 218.353C310.71 218.037 310.296 217.879 309.729 217.879C309.18 217.879 308.752 218.056 308.445 218.409C308.147 218.753 307.989 219.219 307.97 219.805H306.435C306.463 218.744 306.779 217.935 307.384 217.377C307.998 216.809 308.775 216.525 309.715 216.525C310.729 216.525 311.52 216.804 312.087 217.363C312.664 217.921 312.952 218.665 312.952 219.595C312.952 220.265 312.78 220.912 312.436 221.535C312.101 222.149 311.696 222.703 311.222 223.196C310.757 223.68 310.161 224.243 309.436 224.885L308.808 225.443H313.231V226.769H306.449V225.61L307.454 224.745ZM316.346 221.591C315.378 221.107 314.894 220.344 314.894 219.302C314.894 218.8 315.02 218.339 315.271 217.921C315.522 217.502 315.899 217.172 316.401 216.93C316.904 216.679 317.518 216.553 318.244 216.553C318.96 216.553 319.569 216.679 320.072 216.93C320.584 217.172 320.965 217.502 321.216 217.921C321.467 218.339 321.593 218.8 321.593 219.302C321.593 219.823 321.458 220.284 321.188 220.684C320.928 221.075 320.579 221.377 320.142 221.591C320.672 221.786 321.091 222.107 321.398 222.554C321.705 222.991 321.858 223.508 321.858 224.103C321.858 224.708 321.705 225.243 321.398 225.708C321.091 226.173 320.663 226.531 320.114 226.783C319.565 227.034 318.941 227.159 318.244 227.159C317.546 227.159 316.922 227.034 316.374 226.783C315.834 226.531 315.411 226.173 315.104 225.708C314.797 225.243 314.643 224.708 314.643 224.103C314.643 223.498 314.797 222.977 315.104 222.54C315.411 222.103 315.825 221.786 316.346 221.591ZM320.072 219.498C320.072 218.977 319.909 218.577 319.583 218.298C319.258 218.018 318.811 217.879 318.244 217.879C317.685 217.879 317.243 218.018 316.918 218.298C316.592 218.577 316.429 218.981 316.429 219.512C316.429 219.977 316.597 220.358 316.932 220.656C317.276 220.944 317.713 221.089 318.244 221.089C318.774 221.089 319.211 220.94 319.555 220.642C319.9 220.344 320.072 219.963 320.072 219.498ZM318.244 222.289C317.63 222.289 317.127 222.442 316.736 222.749C316.355 223.047 316.164 223.48 316.164 224.047C316.164 224.578 316.35 225.01 316.722 225.345C317.095 225.671 317.602 225.834 318.244 225.834C318.876 225.834 319.374 225.666 319.737 225.331C320.109 224.996 320.295 224.568 320.295 224.047C320.295 223.489 320.104 223.056 319.723 222.749C319.351 222.442 318.858 222.289 318.244 222.289Z" fill="#333333"/>
<path d="M28.2322 270.866C29.1253 270.094 29.8278 269.461 30.3395 268.968C30.8605 268.466 31.2931 267.945 31.6373 267.405C31.9816 266.866 32.1537 266.326 32.1537 265.786C32.1537 265.228 32.0188 264.791 31.749 264.474C31.4885 264.158 31.0745 264 30.5069 264C29.958 264 29.53 264.177 29.223 264.53C28.9253 264.875 28.7671 265.34 28.7485 265.926H27.2134C27.2413 264.865 27.5576 264.056 28.1624 263.498C28.7764 262.93 29.5533 262.646 30.493 262.646C31.5071 262.646 32.2979 262.925 32.8654 263.484C33.4423 264.042 33.7307 264.786 33.7307 265.717C33.7307 266.386 33.5586 267.033 33.2143 267.656C32.8794 268.27 32.4747 268.824 32.0002 269.317C31.535 269.801 30.9396 270.364 30.2139 271.006L29.5859 271.564H34.0098V272.89H27.2274V271.731L28.2322 270.866ZM37.3891 270.266C37.4822 270.731 37.6822 271.085 37.9892 271.327C38.2963 271.569 38.7103 271.69 39.2313 271.69C39.8918 271.69 40.3756 271.429 40.6827 270.908C40.9897 270.387 41.1432 269.499 41.1432 268.243C40.9199 268.559 40.6036 268.805 40.1942 268.982C39.7942 269.15 39.3569 269.233 38.8824 269.233C38.2776 269.233 37.7287 269.112 37.2356 268.871C36.7425 268.619 36.3518 268.252 36.0634 267.768C35.7842 267.275 35.6447 266.679 35.6447 265.982C35.6447 264.958 35.9424 264.144 36.5378 263.539C37.1426 262.925 37.9706 262.618 39.0219 262.618C40.2873 262.618 41.1851 263.042 41.7154 263.888C42.255 264.726 42.5248 266.014 42.5248 267.754C42.5248 268.954 42.4225 269.936 42.2178 270.699C42.0224 271.462 41.6782 272.038 41.1851 272.429C40.692 272.82 40.0081 273.015 39.1336 273.015C38.1381 273.015 37.3705 272.755 36.8309 272.234C36.2913 271.713 35.9889 271.057 35.9238 270.266H37.3891ZM39.1615 267.894C39.7197 267.894 40.157 267.722 40.4733 267.377C40.799 267.024 40.9618 266.559 40.9618 265.982C40.9618 265.34 40.7897 264.842 40.4454 264.488C40.1105 264.126 39.65 263.944 39.0638 263.944C38.4777 263.944 38.0125 264.13 37.6683 264.502C37.3333 264.865 37.1658 265.344 37.1658 265.94C37.1658 266.507 37.3287 266.977 37.6543 267.349C37.9892 267.712 38.4916 267.894 39.1615 267.894Z" fill="#333333"/>
<path d="M73.8622 265.368C73.918 264.502 74.2483 263.828 74.853 263.344C75.4671 262.86 76.2486 262.618 77.1976 262.618C77.8488 262.618 78.4117 262.735 78.8862 262.967C79.3607 263.2 79.7189 263.516 79.9608 263.916C80.2027 264.316 80.3236 264.768 80.3236 265.27C80.3236 265.847 80.1701 266.34 79.8631 266.749C79.5561 267.159 79.1886 267.433 78.7606 267.573V267.628C79.3095 267.796 79.7375 268.103 80.0445 268.55C80.3515 268.987 80.505 269.55 80.505 270.238C80.505 270.787 80.3794 271.276 80.1282 271.704C79.877 272.131 79.5049 272.471 79.0118 272.722C78.5187 272.964 77.9279 273.085 77.2394 273.085C76.2346 273.085 75.4066 272.829 74.7553 272.318C74.1134 271.797 73.7691 271.052 73.7226 270.085H75.2577C75.2949 270.578 75.4857 270.982 75.8299 271.299C76.1741 271.606 76.6393 271.759 77.2255 271.759C77.793 271.759 78.2303 271.606 78.5373 271.299C78.8443 270.982 78.9978 270.578 78.9978 270.085C78.9978 269.433 78.7885 268.973 78.3698 268.703C77.9605 268.424 77.3278 268.284 76.4719 268.284H76.109V266.973H76.4858C77.2394 266.963 77.8116 266.838 78.2024 266.596C78.6024 266.354 78.8025 265.972 78.8025 265.451C78.8025 265.005 78.6582 264.651 78.3698 264.391C78.0814 264.121 77.6721 263.986 77.1417 263.986C76.6207 263.986 76.216 264.121 75.9276 264.391C75.6392 264.651 75.4671 264.977 75.4112 265.368H73.8622ZM82.1762 267.81C82.1762 266.2 82.446 264.944 82.9857 264.042C83.5346 263.13 84.4743 262.674 85.8047 262.674C87.1351 262.674 88.0702 263.13 88.6098 264.042C89.1587 264.944 89.4332 266.2 89.4332 267.81C89.4332 269.438 89.1587 270.713 88.6098 271.634C88.0702 272.546 87.1351 273.001 85.8047 273.001C84.4743 273.001 83.5346 272.546 82.9857 271.634C82.446 270.713 82.1762 269.438 82.1762 267.81ZM87.8701 267.81C87.8701 267.056 87.819 266.419 87.7166 265.898C87.6236 265.377 87.4282 264.954 87.1305 264.628C86.8328 264.293 86.3908 264.126 85.8047 264.126C85.2186 264.126 84.7766 264.293 84.4789 264.628C84.1812 264.954 83.9812 265.377 83.8788 265.898C83.7858 266.419 83.7393 267.056 83.7393 267.81C83.7393 268.591 83.7858 269.247 83.8788 269.778C83.9719 270.308 84.1672 270.736 84.465 271.062C84.772 271.387 85.2186 271.55 85.8047 271.55C86.3908 271.55 86.8328 271.387 87.1305 271.062C87.4375 270.736 87.6375 270.308 87.7306 269.778C87.8236 269.247 87.8701 268.591 87.8701 267.81Z" fill="#333333"/>
<path d="M120.399 265.368C120.455 264.502 120.785 263.828 121.39 263.344C122.004 262.86 122.786 262.618 123.735 262.618C124.386 262.618 124.949 262.735 125.423 262.967C125.898 263.2 126.256 263.516 126.498 263.916C126.74 264.316 126.861 264.768 126.861 265.27C126.861 265.847 126.707 266.34 126.4 266.749C126.093 267.159 125.726 267.433 125.298 267.573V267.628C125.847 267.796 126.275 268.103 126.582 268.55C126.889 268.987 127.042 269.55 127.042 270.238C127.042 270.787 126.917 271.276 126.665 271.704C126.414 272.131 126.042 272.471 125.549 272.722C125.056 272.964 124.465 273.085 123.777 273.085C122.772 273.085 121.944 272.829 121.292 272.318C120.65 271.797 120.306 271.052 120.26 270.085H121.795C121.832 270.578 122.023 270.982 122.367 271.299C122.711 271.606 123.176 271.759 123.763 271.759C124.33 271.759 124.767 271.606 125.074 271.299C125.381 270.982 125.535 270.578 125.535 270.085C125.535 269.433 125.326 268.973 124.907 268.703C124.498 268.424 123.865 268.284 123.009 268.284H122.646V266.973H123.023C123.777 266.963 124.349 266.838 124.739 266.596C125.14 266.354 125.34 265.972 125.34 265.451C125.34 265.005 125.195 264.651 124.907 264.391C124.619 264.121 124.209 263.986 123.679 263.986C123.158 263.986 122.753 264.121 122.465 264.391C122.176 264.651 122.004 264.977 121.948 265.368H120.399ZM128.504 264.307V262.856H131.407V273.029H129.802V264.307H128.504Z" fill="#333333"/>
<g opacity="0.3">
<path d="M166.964 267.81C166.964 266.2 167.234 264.944 167.774 264.042C168.323 263.13 169.262 262.674 170.593 262.674C171.923 262.674 172.858 263.13 173.398 264.042C173.947 264.944 174.221 266.2 174.221 267.81C174.221 269.438 173.947 270.713 173.398 271.634C172.858 272.546 171.923 273.001 170.593 273.001C169.262 273.001 168.323 272.546 167.774 271.634C167.234 270.713 166.964 269.438 166.964 267.81ZM172.658 267.81C172.658 267.056 172.607 266.419 172.505 265.898C172.412 265.377 172.216 264.954 171.919 264.628C171.621 264.293 171.179 264.126 170.593 264.126C170.007 264.126 169.565 264.293 169.267 264.628C168.969 264.954 168.769 265.377 168.667 265.898C168.574 266.419 168.527 267.056 168.527 267.81C168.527 268.591 168.574 269.247 168.667 269.778C168.76 270.308 168.955 270.736 169.253 271.062C169.56 271.387 170.007 271.55 170.593 271.55C171.179 271.55 171.621 271.387 171.919 271.062C172.226 270.736 172.426 270.308 172.519 269.778C172.612 269.247 172.658 268.591 172.658 267.81ZM175.695 264.307V262.856H178.598V273.029H176.993V264.307H175.695Z" fill="#333333"/>
</g>
<g opacity="0.3">
<path d="M213.5 267.81C213.5 266.2 213.77 264.944 214.31 264.042C214.859 263.13 215.798 262.674 217.129 262.674C218.459 262.674 219.394 263.13 219.934 264.042C220.483 264.944 220.757 266.2 220.757 267.81C220.757 269.438 220.483 270.713 219.934 271.634C219.394 272.546 218.459 273.001 217.129 273.001C215.798 273.001 214.859 272.546 214.31 271.634C213.77 270.713 213.5 269.438 213.5 267.81ZM219.194 267.81C219.194 267.056 219.143 266.419 219.041 265.898C218.948 265.377 218.752 264.954 218.455 264.628C218.157 264.293 217.715 264.126 217.129 264.126C216.543 264.126 216.101 264.293 215.803 264.628C215.505 264.954 215.305 265.377 215.203 265.898C215.11 266.419 215.063 267.056 215.063 267.81C215.063 268.591 215.11 269.247 215.203 269.778C215.296 270.308 215.491 270.736 215.789 271.062C216.096 271.387 216.543 271.55 217.129 271.55C217.715 271.55 218.157 271.387 218.455 271.062C218.762 270.736 218.962 270.308 219.055 269.778C219.148 269.247 219.194 268.591 219.194 267.81ZM223.32 270.866C224.213 270.094 224.916 269.461 225.427 268.968C225.948 268.466 226.381 267.945 226.725 267.405C227.069 266.866 227.241 266.326 227.241 265.786C227.241 265.228 227.107 264.791 226.837 264.474C226.576 264.158 226.162 264 225.595 264C225.046 264 224.618 264.177 224.311 264.53C224.013 264.875 223.855 265.34 223.836 265.926H222.301C222.329 264.865 222.645 264.056 223.25 263.498C223.864 262.93 224.641 262.646 225.581 262.646C226.595 262.646 227.386 262.925 227.953 263.484C228.53 264.042 228.818 264.786 228.818 265.717C228.818 266.386 228.646 267.033 228.302 267.656C227.967 268.27 227.562 268.824 227.088 269.317C226.623 269.801 226.027 270.364 225.302 271.006L224.674 271.564H229.098V272.89H222.315V271.731L223.32 270.866Z" fill="#333333"/>
</g>
<g opacity="0.3">
<path d="M260.038 267.81C260.038 266.2 260.307 264.944 260.847 264.042C261.396 263.13 262.336 262.674 263.666 262.674C264.996 262.674 265.931 263.13 266.471 264.042C267.02 264.944 267.294 266.2 267.294 267.81C267.294 269.438 267.02 270.713 266.471 271.634C265.931 272.546 264.996 273.001 263.666 273.001C262.336 273.001 261.396 272.546 260.847 271.634C260.307 270.713 260.038 269.438 260.038 267.81ZM265.731 267.81C265.731 267.056 265.68 266.419 265.578 265.898C265.485 265.377 265.29 264.954 264.992 264.628C264.694 264.293 264.252 264.126 263.666 264.126C263.08 264.126 262.638 264.293 262.34 264.628C262.042 264.954 261.842 265.377 261.74 265.898C261.647 266.419 261.601 267.056 261.601 267.81C261.601 268.591 261.647 269.247 261.74 269.778C261.833 270.308 262.029 270.736 262.326 271.062C262.633 271.387 263.08 271.55 263.666 271.55C264.252 271.55 264.694 271.387 264.992 271.062C265.299 270.736 265.499 270.308 265.592 269.778C265.685 269.247 265.731 268.591 265.731 267.81ZM268.95 265.368C269.006 264.502 269.336 263.828 269.941 263.344C270.555 262.86 271.336 262.618 272.285 262.618C272.937 262.618 273.499 262.735 273.974 262.967C274.448 263.2 274.807 263.516 275.049 263.916C275.29 264.316 275.411 264.768 275.411 265.27C275.411 265.847 275.258 266.34 274.951 266.749C274.644 267.159 274.276 267.433 273.848 267.573V267.628C274.397 267.796 274.825 268.103 275.132 268.55C275.439 268.987 275.593 269.55 275.593 270.238C275.593 270.787 275.467 271.276 275.216 271.704C274.965 272.131 274.593 272.471 274.1 272.722C273.606 272.964 273.016 273.085 272.327 273.085C271.322 273.085 270.494 272.829 269.843 272.318C269.201 271.797 268.857 271.052 268.81 270.085H270.346C270.383 270.578 270.573 270.982 270.918 271.299C271.262 271.606 271.727 271.759 272.313 271.759C272.881 271.759 273.318 271.606 273.625 271.299C273.932 270.982 274.086 270.578 274.086 270.085C274.086 269.433 273.876 268.973 273.458 268.703C273.048 268.424 272.416 268.284 271.56 268.284H271.197V266.973H271.574C272.327 266.963 272.899 266.838 273.29 266.596C273.69 266.354 273.89 265.972 273.89 265.451C273.89 265.005 273.746 264.651 273.458 264.391C273.169 264.121 272.76 263.986 272.23 263.986C271.709 263.986 271.304 264.121 271.015 264.391C270.727 264.651 270.555 264.977 270.499 265.368H268.95Z" fill="#333333"/>
</g>
<g opacity="0.3">
<path d="M306.575 267.81C306.575 266.2 306.844 264.944 307.384 264.042C307.933 263.13 308.873 262.674 310.203 262.674C311.534 262.674 312.469 263.13 313.008 264.042C313.557 264.944 313.832 266.2 313.832 267.81C313.832 269.438 313.557 270.713 313.008 271.634C312.469 272.546 311.534 273.001 310.203 273.001C308.873 273.001 307.933 272.546 307.384 271.634C306.844 270.713 306.575 269.438 306.575 267.81ZM312.269 267.81C312.269 267.056 312.217 266.419 312.115 265.898C312.022 265.377 311.827 264.954 311.529 264.628C311.231 264.293 310.789 264.126 310.203 264.126C309.617 264.126 309.175 264.293 308.877 264.628C308.58 264.954 308.38 265.377 308.277 265.898C308.184 266.419 308.138 267.056 308.138 267.81C308.138 268.591 308.184 269.247 308.277 269.778C308.37 270.308 308.566 270.736 308.863 271.062C309.17 271.387 309.617 271.55 310.203 271.55C310.789 271.55 311.231 271.387 311.529 271.062C311.836 270.736 312.036 270.308 312.129 269.778C312.222 269.247 312.269 268.591 312.269 267.81ZM315.32 270.908V269.708L320.009 262.981H321.935V269.526H323.232V270.908H321.935V273.029H320.372V270.908H315.32ZM320.441 264.6L317.148 269.526H320.441V264.6Z" fill="#333333"/>
</g>
</svg>
